<svg xmlns="http://www.w3.org/2000/svg" viewBox="0 0 64 64">
  <title>Cryomanta favicon</title>
  <defs>
    <linearGradient id="bg" x1="10" y1="6" x2="56" y2="58" gradientUnits="userSpaceOnUse">
      <stop stop-color="#fbf6ed"/>
      <stop offset="0.55" stop-color="#f4ede0"/>
      <stop offset="1" stop-color="#e5d4bb"/>
    </linearGradient>
    <linearGradient id="cool" x1="18" y1="18" x2="46" y2="26" gradientUnits="userSpaceOnUse">
      <stop stop-color="#c9eef2"/>
      <stop offset="1" stop-color="#83c4cf"/>
    </linearGradient>
  </defs>
  <rect x="4" y="4" width="56" height="56" rx="16" fill="url(#bg)"/>
  <path
    d="M18 20C21.5 16.7 26.3 15 32 15c5.7 0 10.5 1.7 14 5"
    fill="none"
    stroke="url(#cool)"
    stroke-linecap="round"
    stroke-width="4"
  />
  <path
    d="M10 30C14.4 19.3 22.4 13 32 13s17.6 6.3 22 17c-7 1.2-13.1 4.9-16.7 10.4-2 3-3.2 6.8-4.1 12.6h-2.4c-.9-5.8-2.1-9.6-4.1-12.6C23.1 34.9 17 31.2 10 30Z"
    fill="#1e242a"
  />
  <path
    d="M24 29.5c2.3 2 5 3 8 3s5.7-1 8-3"
    fill="none"
    stroke="#f9f4eb"
    stroke-linecap="round"
    stroke-width="2.2"
  />
  <circle cx="32" cy="26.6" r="1.8" fill="#b84222"/>
</svg>
